<?xml version="1.0" encoding="UTF-8" standalone="no"?>
<svg
   xmlns:dc="http://purl.org/dc/elements/1.1/"
   xmlns:cc="http://creativecommons.org/ns#"
   xmlns:rdf="http://www.w3.org/1999/02/22-rdf-syntax-ns#"
   xmlns:svg="http://www.w3.org/2000/svg"
   xmlns="http://www.w3.org/2000/svg"
   xmlns:sodipodi="http://sodipodi.sourceforge.net/DTD/sodipodi-0.dtd"
   xmlns:inkscape="http://www.inkscape.org/namespaces/inkscape"
   version="1.0"
   width="1023.6116pt"
   height="758.16107pt"
   viewBox="0 0 1023.6117 758.16108"
   preserveAspectRatio="xMidYMid meet"
   id="svg32"
   sodipodi:docname="cesu.svg"
   inkscape:version="1.0.1 (3bc2e813f5, 2020-09-07)">
  <defs
     id="defs36" />
  <sodipodi:namedview
     pagecolor="#ffffff"
     bordercolor="#666666"
     borderopacity="1"
     objecttolerance="10"
     gridtolerance="10"
     guidetolerance="10"
     inkscape:pageopacity="0"
     inkscape:pageshadow="2"
     inkscape:window-width="1920"
     inkscape:window-height="1057"
     id="namedview34"
     showgrid="false"
     fit-margin-top="0"
     fit-margin-left="0"
     fit-margin-right="0"
     fit-margin-bottom="0"
     inkscape:zoom="0.57073008"
     inkscape:cx="511.84013"
     inkscape:cy="807.99182"
     inkscape:window-x="-8"
     inkscape:window-y="53"
     inkscape:window-maximized="1"
     inkscape:current-layer="svg32"
     inkscape:document-rotation="0" />
  <metadata
     id="metadata2">
Created by potrace 1.16, written by Peter Selinger 2001-2019
<rdf:RDF>
  <cc:Work
     rdf:about="">
    <dc:format>image/svg+xml</dc:format>
    <dc:type
       rdf:resource="http://purl.org/dc/dcmitype/StillImage" />
    <dc:title></dc:title>
  </cc:Work>
</rdf:RDF>
</metadata>
  <rect
     style="color:#000000;overflow:visible;fill:#ffffff;fill-opacity:0.956863;stroke-width:57.4684;stroke-linecap:round"
     id="rect845"
     width="834.45752"
     height="402.49118"
     x="67.019432"
     y="247.99149"
     ry="3.623034" />
  <path
     style="color:#000000;overflow:visible;fill:#f4f4f6;fill-opacity:0.956863;stroke-width:224.591;stroke-linecap:round"
     id="path861-4"
     sodipodi:type="arc"
     sodipodi:cx="336.41119"
     sodipodi:cy="135.35295"
     sodipodi:rx="157.17448"
     sodipodi:ry="135.35295"
     sodipodi:start="2.1793926"
     sodipodi:end="2.1776473"
     sodipodi:arc-type="slice"
     d="M 246.55197,246.40346 A 157.17448,135.35295 0 0 1 207.41798,58.01792 157.17448,135.35295 0 0 1 426.15785,24.234952 157.17448,135.35295 0 0 1 465.48273,212.59102 157.17448,135.35295 0 0 1 246.77717,246.53835 l 89.63402,-111.1854 z" />
  <g
     transform="matrix(0.1,0,0,-0.1,-303.14393,1203.3346)"
     fill="#000000"
     stroke="none"
     id="g30">
    <path
       d="m 5810,11480 c -251,-65 -425,-186 -504,-350 -27,-56 -31,-78 -34,-163 -4,-90 -2,-102 23,-150 31,-61 55,-90 110,-133 79,-62 193,-106 338,-129 339,-55 397,-82 397,-182 0,-107 -60,-145 -242,-151 -138,-5 -260,10 -355,42 -77,26 -149,61 -176,84 -9,8 -19,13 -22,10 -12,-11 14,-215 31,-253 30,-64 90,-120 167,-159 111,-55 189,-70 362,-70 127,-1 164,3 240,23 242,64 395,203 440,401 20,88 19,146 -4,219 -53,169 -235,291 -486,326 -180,24 -312,64 -342,104 -22,29 -16,96 12,130 46,53 119,73 290,79 211,6 348,-24 466,-104 28,-19 53,-34 56,-34 3,0 3,51 1,113 -3,97 -7,119 -30,162 -26,50 -80,107 -128,137 -14,8 -59,28 -100,43 -68,25 -90,28 -235,31 -152,4 -166,3 -275,-26 z"
       id="path4"
       style="fill:#d02170;fill-opacity:1" />
    <path
       d="m 6809,10883 c -1,-324 0,-604 1,-623 4,-91 93,-198 189,-227 38,-12 170,-29 271,-35 l 44,-3 8,43 c 6,38 30,290 59,627 5,66 19,212 30,324 26,251 23,306 -17,363 -36,52 -115,94 -199,108 -33,6 -133,10 -222,10 h -163 z"
       id="path6"
       style="fill:#d02170;fill-opacity:1" />
    <path
       d="m 11845,11254 c -152,-15 -697,-101 -1390,-219 -181,-31 -370,-62 -420,-70 -49,-8 -184,-32 -300,-54 -346,-65 -832,-157 -1324,-249 l -465,-87 -13,-70 c -40,-223 -124,-408 -270,-598 -56,-72 -221,-237 -257,-256 -22,-12 -28,-11 -63,16 -94,75 -172,98 -303,91 -101,-6 -168,-34 -248,-104 -76,-66 -132,-189 -132,-290 v -41 l -52,-7 c -349,-43 -684,12 -981,160 -73,37 -215,127 -252,161 -11,10 -47,40 -79,68 -64,53 -183,192 -230,268 -23,36 -34,45 -50,42 -12,-3 -59,-12 -106,-20 -47,-9 -123,-24 -170,-35 -47,-10 -139,-28 -205,-40 -192,-36 -511,-117 -629,-160 -147,-53 -261,-111 -381,-191 -268,-180 -388,-361 -456,-687 -36,-174 -42,-303 -35,-757 7,-434 31,-1277 41,-1415 3,-41 10,-174 15,-295 18,-393 38,-540 92,-690 82,-226 254,-429 483,-568 79,-48 236,-113 332,-138 123,-31 428,-64 1043,-114 342,-27 1365,-114 1840,-155 481,-42 579,-50 700,-60 69,-5 181,-14 250,-20 352,-29 682,-56 855,-70 72,-5 218,-17 325,-25 107,-8 251,-20 320,-25 69,-6 220,-17 335,-25 116,-8 336,-23 490,-34 614,-44 636,-45 758,-32 213,21 466,102 611,195 31,20 59,36 61,36 18,0 245,181 321,256 283,277 415,551 549,1139 32,143 51,231 115,535 16,74 54,254 85,400 31,146 70,327 86,403 16,75 43,201 60,280 60,280 198,953 254,1242 20,99 38,186 40,194 14,38 155,820 166,916 13,124 7,223 -21,358 -23,114 -39,157 -90,255 -126,242 -359,435 -630,521 -151,48 -247,62 -445,66 -104,1 -208,1 -230,-1 z m -780,-1793 c 66,-16 173,-41 237,-56 131,-30 148,-42 148,-108 0,-29 -7,-46 -29,-68 -16,-16 -38,-29 -49,-29 -10,0 -82,15 -158,34 -76,19 -180,44 -230,56 -109,25 -134,44 -134,101 0,31 7,47 29,70 16,16 38,29 48,29 10,0 72,-13 138,-29 z m 368,-384 c 46,-20 101,-85 128,-153 19,-50 22,-77 22,-179 -1,-119 -20,-350 -48,-567 -8,-62 -22,-183 -31,-268 -9,-85 -23,-168 -31,-183 -44,-85 -201,-99 -235,-20 -7,15 -13,29 -13,30 -1,2 -33,-13 -72,-32 -112,-55 -178,-68 -318,-62 -150,6 -189,18 -241,71 -56,58 -74,127 -74,278 0,192 28,345 77,423 77,121 198,175 389,175 95,0 160,-12 244,-45 l 60,-24 6,25 c 3,13 4,62 3,108 -4,94 -19,119 -87,152 -76,36 -273,15 -432,-47 -45,-17 -87,-28 -95,-25 -47,18 -62,124 -27,193 55,107 149,138 452,152 267,12 288,12 323,-2 z m -1429,-107 c 30,-11 62,-58 71,-106 8,-47 -10,-106 -44,-143 -26,-27 -32,-29 -61,-21 -76,22 -239,32 -339,21 -54,-6 -106,-13 -114,-17 -55,-21 -102,-248 -60,-287 19,-16 27,-16 159,-1 168,21 233,15 298,-26 95,-61 114,-131 91,-352 -22,-221 -50,-298 -137,-372 -79,-68 -125,-78 -373,-83 -210,-4 -222,-3 -253,16 -39,25 -52,55 -52,122 0,53 16,93 46,121 18,15 24,15 99,-3 103,-26 305,-31 350,-9 16,8 40,33 52,55 27,49 46,160 37,215 -10,63 -27,74 -98,66 -34,-3 -115,-9 -181,-12 -110,-6 -124,-5 -162,14 -48,25 -84,69 -104,127 -18,52 -18,290 0,365 38,154 131,253 264,280 165,33 458,51 511,30 z M 8918,8865 c 114,-34 152,-107 152,-293 0,-113 -16,-229 -41,-302 -23,-65 -76,-138 -121,-164 -105,-61 -306,-79 -427,-37 -35,12 -66,19 -69,16 -12,-12 -7,-240 6,-272 24,-55 83,-55 356,-2 168,32 174,31 196,-37 28,-84 -23,-172 -113,-199 -74,-22 -273,-38 -409,-33 -113,4 -119,5 -155,34 -21,17 -51,55 -68,85 -26,48 -30,66 -33,159 -6,141 25,677 44,767 40,190 143,267 374,283 189,12 254,11 308,-5 z m -859,-68 c 43,-22 64,-61 63,-115 -2,-57 -12,-89 -40,-117 -18,-20 -23,-21 -143,-9 -189,19 -268,18 -306,-6 -65,-39 -78,-102 -93,-448 -12,-272 -6,-343 30,-362 33,-18 111,-11 280,24 90,19 169,32 175,30 23,-9 45,-63 45,-111 0,-70 -27,-106 -110,-146 -41,-19 -65,-22 -250,-25 -201,-3 -206,-3 -250,21 -57,30 -95,85 -116,165 -14,58 -14,94 0,422 9,197 21,382 27,412 26,120 101,210 203,242 95,30 440,46 485,23 z m -904,-82 c 21,-20 25,-34 25,-86 0,-106 -40,-1023 -45,-1047 -10,-44 -49,-72 -100,-72 -26,0 -55,4 -65,10 -29,15 -42,71 -36,147 4,37 13,271 22,518 8,248 20,465 25,482 23,72 123,100 174,48 z m -363,-26 c 26,-14 48,-68 48,-117 0,-35 -83,-288 -188,-577 -22,-60 -68,-188 -101,-283 -33,-96 -67,-185 -76,-198 -23,-35 -70,-33 -89,4 -20,39 -313,928 -320,974 -8,45 16,111 52,138 31,25 74,26 95,2 15,-16 217,-613 217,-640 0,-7 4,-12 9,-12 5,0 29,62 54,138 136,409 180,534 198,557 22,27 65,33 101,14 z m -932,-101 c 34,-18 50,-36 72,-78 l 29,-55 -4,-170 c -3,-134 -8,-182 -23,-225 -21,-61 -86,-135 -128,-146 -14,-3 -26,-10 -26,-14 0,-9 112,-199 144,-245 15,-22 21,-45 21,-87 0,-49 -4,-60 -28,-82 -37,-34 -74,-43 -106,-25 -16,9 -68,89 -145,222 -66,114 -125,206 -131,204 -6,-2 -12,-77 -15,-201 l -5,-198 -28,-24 c -34,-29 -85,-32 -118,-5 l -24,19 -3,354 c -1,194 1,440 6,545 7,175 9,194 27,207 44,34 110,7 135,-53 l 12,-31 43,36 c 88,72 213,93 295,52 z m -783,-43 c 100,-30 137,-114 136,-310 0,-138 -21,-240 -59,-298 -54,-81 -226,-121 -348,-79 l -58,20 4,-107 c 6,-140 12,-151 86,-151 32,0 112,11 177,25 l 119,25 21,-20 c 16,-17 20,-33 20,-85 0,-57 -4,-67 -29,-94 -38,-40 -98,-52 -278,-54 -174,-2 -197,7 -241,94 -40,80 -47,144 -47,424 1,390 16,486 90,552 45,40 91,54 200,63 148,11 153,11 207,-5 z m -665,-56 c 47,-25 60,-166 19,-203 -18,-16 -23,-16 -82,-1 -42,11 -92,16 -146,13 -112,-4 -125,-17 -131,-130 -5,-118 -3,-121 120,-106 74,9 106,9 136,0 91,-28 132,-116 132,-288 0,-176 -25,-267 -87,-326 -44,-42 -79,-50 -228,-55 -151,-4 -164,0 -194,54 -18,34 -13,124 7,151 18,23 19,23 73,8 84,-23 152,-29 198,-16 54,14 71,51 71,154 0,56 -4,79 -18,96 -17,21 -20,22 -110,11 -178,-22 -230,21 -253,210 -29,239 30,391 163,418 133,28 286,32 330,10 z m 6877,-1310 c 139,-29 198,-147 173,-341 -24,-184 -79,-293 -173,-340 -105,-54 -286,-60 -421,-14 l -67,22 -7,-44 c -10,-65 0,-202 16,-212 38,-23 155,-20 398,11 80,11 84,10 108,-12 47,-44 40,-131 -14,-181 -41,-38 -103,-48 -299,-48 -228,0 -295,10 -342,48 -59,47 -84,103 -89,197 -5,89 30,495 54,639 26,157 89,237 211,271 60,16 381,19 452,4 z m -1000,-20 c 59,-18 114,-61 139,-109 22,-42 23,-53 18,-175 -8,-194 -62,-749 -76,-776 -7,-13 -22,-32 -34,-41 -47,-39 -153,-9 -168,47 -8,30 8,247 52,697 10,96 7,126 -14,140 -20,14 -225,9 -260,-6 -43,-18 -38,12 -76,-471 -17,-224 -29,-331 -38,-356 -16,-40 -40,-53 -99,-53 -49,0 -58,3 -80,29 -24,28 -25,32 -19,134 4,58 11,147 16,196 5,50 19,224 31,388 27,350 29,357 107,357 53,0 85,-17 107,-59 l 14,-28 83,40 c 46,22 97,43 113,47 46,12 144,11 184,-1 z m -892,-25 c 56,-20 109,-76 122,-130 15,-57 14,-128 -3,-341 -8,-98 -20,-250 -26,-338 -14,-199 -27,-240 -80,-256 -49,-15 -105,-4 -125,24 -19,27 -19,82 -1,323 38,494 38,482 24,504 -12,20 -19,21 -135,18 -93,-2 -126,-7 -136,-18 -15,-15 -17,-44 -53,-554 -16,-235 -24,-269 -72,-287 -40,-16 -104,-4 -126,23 -17,21 -18,35 -13,143 16,312 57,846 67,864 32,60 130,49 165,-19 l 15,-29 84,40 c 121,58 197,67 293,33 z m -853,-8 c 41,-17 80,-67 95,-121 15,-55 13,-241 -4,-490 -17,-231 -29,-290 -75,-354 -51,-70 -87,-81 -280,-81 -154,0 -168,2 -217,25 -64,29 -108,91 -118,167 -8,56 10,477 25,601 18,151 76,231 185,258 57,14 353,10 389,-5 z m -751,-7 c 28,-8 42,-19 57,-49 24,-46 25,-78 6,-124 -18,-44 -41,-50 -113,-32 -142,36 -260,33 -287,-9 -18,-28 -31,-122 -22,-159 l 6,-26 108,6 c 132,8 194,-8 241,-62 45,-50 54,-100 46,-239 -10,-180 -41,-250 -135,-308 -33,-21 -45,-22 -199,-19 -182,3 -209,11 -237,64 -22,43 -14,113 17,144 23,23 25,23 69,8 59,-21 208,-39 242,-31 40,10 58,46 65,124 9,111 6,113 -137,113 -65,0 -131,5 -147,11 -80,30 -113,106 -113,264 0,199 63,306 192,325 80,11 298,11 341,-1 z m -1082,-19 c 10,-6 26,-24 34,-39 l 15,-29 57,31 c 106,57 258,48 293,-18 7,-14 17,-25 21,-25 4,0 13,-23 19,-51 19,-78 8,-269 -19,-341 -23,-60 -73,-113 -116,-124 -14,-3 -25,-8 -25,-11 0,-2 28,-50 61,-105 78,-126 94,-169 79,-214 -7,-19 -21,-41 -33,-49 -22,-16 -84,-20 -103,-7 -6,4 -36,50 -66,102 -30,52 -72,123 -92,157 -20,34 -36,64 -36,68 0,3 -5,11 -10,18 -6,7 -17,21 -25,32 -13,18 -14,4 -15,-125 0,-151 -11,-216 -38,-237 -19,-15 -76,-17 -102,-3 -39,21 -41,56 -30,450 12,439 16,495 37,515 17,17 66,20 94,5 z m -306,-26 c 65,-33 89,-93 93,-232 6,-204 -39,-312 -145,-343 -62,-18 -186,-16 -240,4 -24,9 -43,13 -44,9 -3,-36 4,-159 11,-178 9,-22 15,-24 72,-24 58,0 111,6 225,25 40,7 43,6 63,-26 16,-26 20,-45 17,-78 -10,-92 -78,-117 -295,-106 -155,8 -182,20 -222,100 -24,49 -25,57 -28,297 -5,408 14,496 118,551 54,28 57,29 195,25 117,-2 146,-6 180,-24 z m -1009,-29 33,-35 52,32 c 41,26 64,33 119,36 84,5 137,-19 177,-80 l 28,-42 v -325 -326 l -25,-49 c -14,-28 -42,-64 -63,-80 -37,-29 -44,-31 -125,-31 -72,0 -94,4 -124,22 -21,12 -39,19 -41,15 -3,-4 -5,-44 -6,-90 -1,-46 -4,-89 -7,-97 -3,-8 -21,-19 -40,-25 -40,-14 -88,0 -99,28 -4,10 -6,242 -5,516 1,558 2,566 61,566 23,0 40,-9 65,-35 z m -566,-5 c 34,-23 56,-63 74,-135 13,-47 16,-122 16,-378 v -318 l -25,-24 c -30,-31 -73,-32 -104,-4 l -22,21 -49,-21 c -86,-37 -190,-23 -246,33 -48,48 -64,115 -63,270 0,155 14,203 72,250 51,41 136,48 217,17 30,-12 58,-21 63,-21 10,0 9,34 -4,85 -9,35 -18,47 -44,59 -46,22 -114,20 -187,-5 l -62,-22 -18,23 c -26,32 -24,99 5,141 32,47 81,58 232,52 92,-4 126,-9 145,-23 z m -764,6 c 18,-13 19,-32 25,-253 4,-131 7,-281 8,-334 l 1,-96 118,-7 c 109,-6 119,-8 140,-32 46,-52 22,-134 -44,-150 -46,-12 -303,3 -321,18 -40,33 -43,63 -43,453 0,362 1,376 20,395 23,23 68,26 96,6 z"
       id="path8"
       style="fill:#204987;fill-opacity:1;stroke:none" />
    <path
       d="m 10886,8325 c -75,-20 -89,-48 -107,-224 -11,-109 -6,-183 14,-199 37,-30 291,-19 370,16 64,29 72,45 85,162 19,163 16,197 -13,224 -14,13 -39,26 -56,30 -54,11 -242,5 -293,-9 z"
       id="path10"
       style="fill:#204987;fill-opacity:1" />
    <path
       d="m 8630,8638 c -98,-12 -154,-37 -175,-78 -14,-28 -34,-162 -35,-238 0,-40 56,-56 180,-49 204,12 231,34 238,194 3,59 0,104 -8,122 -20,48 -83,64 -200,49 z"
       id="path12"
       style="fill:#204987;fill-opacity:1" />
    <path
       d="m 5573,8360 -43,-19 v -129 -130 l 65,-7 c 57,-6 72,-4 113,17 56,28 71,60 71,160 1,77 -12,114 -43,122 -43,12 -122,5 -163,-14 z"
       id="path14"
       style="fill:#204987;fill-opacity:1" />
    <path
       d="m 4829,8334 c -69,-21 -73,-31 -78,-160 l -3,-114 27,-10 c 35,-13 121,-13 185,1 67,14 80,39 80,157 0,81 -2,92 -25,116 -21,23 -32,26 -82,25 -32,0 -79,-7 -104,-15 z"
       id="path16"
       style="fill:#204987;fill-opacity:1" />
    <path
       d="m 10977,6970 c -113,-11 -138,-43 -152,-193 l -7,-77 38,-16 c 31,-13 65,-15 169,-12 139,4 164,12 186,57 18,39 23,171 7,200 -24,45 -90,57 -241,41 z"
       id="path18"
       style="fill:#204987;fill-opacity:1" />
    <path
       d="m 8187,6922 c -30,-33 -37,-74 -52,-291 -16,-243 -12,-327 16,-341 9,-6 62,-12 116,-15 118,-7 142,2 159,61 17,59 47,439 40,507 -10,98 -9,97 -145,97 -100,0 -120,-3 -134,-18 z"
       id="path20"
       style="fill:#204987;fill-opacity:1" />
    <path
       d="m 6788,6888 c -13,-10 -18,-39 -24,-114 -7,-116 -9,-114 93,-114 100,0 123,27 123,144 0,74 0,74 -31,85 -43,15 -141,14 -161,-1 z"
       id="path22"
       style="fill:#204987;fill-opacity:1" />
    <path
       d="m 6146,6909 c -63,-15 -76,-39 -76,-136 0,-80 1,-84 26,-93 14,-6 63,-10 109,-10 111,0 122,9 131,111 6,70 5,77 -18,104 -21,23 -34,29 -79,31 -30,2 -72,-1 -93,-7 z"
       id="path24"
       style="fill:#204987;fill-opacity:1" />
    <path
       d="m 5470,6886 -35,-13 -3,-261 -2,-261 31,-16 c 45,-24 129,-30 153,-12 17,12 21,32 27,133 11,175 10,389 -1,418 -9,24 -14,26 -72,25 -35,0 -79,-6 -98,-13 z"
       id="path26"
       style="fill:#204987;fill-opacity:1" />
    <path
       d="m 4606,6591 c -35,-5 -41,-10 -49,-41 -10,-39 -2,-189 11,-202 5,-5 41,-12 80,-15 66,-5 72,-4 96,20 24,24 26,33 26,107 0,73 -3,83 -25,105 -13,14 -32,25 -42,25 -10,0 -27,2 -38,4 -11,2 -38,1 -59,-3 z"
       id="path28"
       style="fill:#204987;fill-opacity:1" />
  </g>
  <path
     style="color:#000000;overflow:visible;fill:#d02170;fill-opacity:0.956863;stroke-width:59.9005;stroke-linecap:round"
     id="path861"
     sodipodi:type="arc"
     sodipodi:cx="403.92502"
     sodipodi:cy="262.62555"
     sodipodi:rx="42.695053"
     sodipodi:ry="35.444431"
     sodipodi:start="2.1793926"
     sodipodi:end="2.1776473"
     sodipodi:arc-type="slice"
     d="m 379.51556,291.70598 a 42.695053,35.444431 0 0 1 -10.6304,-49.3319 42.695053,35.444431 0 0 1 59.41874,-8.84663 42.695053,35.444431 0 0 1 10.68225,49.32418 42.695053,35.444431 0 0 1 -59.40942,8.88967 l 24.34829,-29.11575 z" />
</svg>
