<?xml version="1.0" encoding="UTF-8" standalone="no"?>
<svg
   xmlns:dc="http://purl.org/dc/elements/1.1/"
   xmlns:cc="http://creativecommons.org/ns#"
   xmlns:rdf="http://www.w3.org/1999/02/22-rdf-syntax-ns#"
   xmlns:svg="http://www.w3.org/2000/svg"
   xmlns="http://www.w3.org/2000/svg"
   xmlns:sodipodi="http://sodipodi.sourceforge.net/DTD/sodipodi-0.dtd"
   xmlns:inkscape="http://www.inkscape.org/namespaces/inkscape"
   id="svg2"
   version="1.1"
   inkscape:version="1.0.1 (3bc2e813f5, 2020-09-07)"
   width="45.130383"
   height="60.302734"
   sodipodi:docname="HW_gps.svg"
   inkscape:export-filename="E:\WEBMASTER\Symfony\hourraweb\assets\images\logos\HW.png"
   inkscape:export-xdpi="96"
   inkscape:export-ydpi="96">
  <metadata
     id="metadata8">
    <rdf:RDF>
      <cc:Work
         rdf:about="">
        <dc:format>image/svg+xml</dc:format>
        <dc:type
           rdf:resource="http://purl.org/dc/dcmitype/StillImage" />
        <dc:title></dc:title>
      </cc:Work>
    </rdf:RDF>
  </metadata>
  <defs
     id="defs6" />
  <sodipodi:namedview
     pagecolor="#ffffff"
     bordercolor="#666666"
     borderopacity="1"
     objecttolerance="10"
     gridtolerance="10"
     guidetolerance="10"
     inkscape:pageopacity="0"
     inkscape:pageshadow="2"
     inkscape:window-width="1920"
     inkscape:window-height="1057"
     id="namedview4"
     showgrid="false"
     inkscape:zoom="1"
     inkscape:cx="-161.11693"
     inkscape:cy="-137.86015"
     inkscape:window-x="-8"
     inkscape:window-y="53"
     inkscape:window-maximized="1"
     inkscape:current-layer="layer3"
     inkscape:document-rotation="0"
     fit-margin-top="0"
     fit-margin-left="0"
     fit-margin-right="0"
     fit-margin-bottom="0" />
  <g
     inkscape:groupmode="layer"
     id="layer4"
     inkscape:label="inner"
     transform="translate(1.496885,1.5)">
    <path
       id="path858-4"
       style="color:#000000;font-style:normal;font-variant:normal;font-weight:normal;font-stretch:normal;font-size:medium;line-height:normal;font-family:sans-serif;font-variant-ligatures:normal;font-variant-position:normal;font-variant-caps:normal;font-variant-numeric:normal;font-variant-alternates:normal;font-variant-east-asian:normal;font-feature-settings:normal;font-variation-settings:normal;text-indent:0;text-align:start;text-decoration:none;text-decoration-line:none;text-decoration-style:solid;text-decoration-color:#000000;letter-spacing:normal;word-spacing:normal;text-transform:none;writing-mode:lr-tb;direction:ltr;text-orientation:mixed;dominant-baseline:auto;baseline-shift:baseline;text-anchor:start;white-space:normal;shape-padding:0;shape-margin:0;inline-size:0;clip-rule:nonzero;display:inline;overflow:visible;visibility:visible;opacity:1;isolation:auto;mix-blend-mode:normal;color-interpolation:sRGB;color-interpolation-filters:linearRGB;solid-color:#000000;solid-opacity:1;vector-effect:none;fill:#ff6800;fill-opacity:1;fill-rule:nonzero;stroke:#b64a00;stroke-width:3;stroke-linecap:square;stroke-linejoin:miter;stroke-miterlimit:4;stroke-dasharray:none;stroke-dashoffset:0;stroke-opacity:1;color-rendering:auto;image-rendering:auto;shape-rendering:auto;text-rendering:auto;enable-background:accumulate;stop-color:#000000;stop-opacity:1"
       d="M 20.740234,0 C 4.736092,0 -2.0957467,11.265742 0.55859375,21.171875 3.2129342,31.078008 14.005351,57.302734 20.740234,57.302734 c 6.734883,0 18.218706,-26.224726 20.873047,-36.130859 C 44.267621,11.265742 36.744376,0 20.740234,0 Z" />
  </g>
  <g
     inkscape:groupmode="layer"
     id="layer1"
     inkscape:label="outter"
     transform="translate(6.7586823,5.219972)" />
  <g
     inkscape:groupmode="layer"
     id="layer3"
     inkscape:label="Corps"
     style="display:inline"
     transform="translate(-57.578806,-125.58691)">
    <path
       d="m 66.663229,137.36366 -0.03527,5.2675 10.00007,0.0452 0.03527,-5.2675 3.250975,0.0128 -0.08627,13.53543 -3.250979,-0.0128 0.03527,-5.4182 -10.000069,-0.0451 -0.03527,5.41818 -3.213297,-0.0127 0.08628,-13.53543 z"
       style="font-style:normal;font-variant:normal;font-weight:normal;font-stretch:normal;font-size:150.536px;line-height:125%;font-family:Audiowide;-inkscape-font-specification:Audiowide;letter-spacing:0px;word-spacing:0px;display:inline;fill:#ffffff;fill-opacity:1;stroke:#b64a00;stroke-width:1.23547;stroke-miterlimit:4;stroke-dasharray:none;stroke-opacity:1"
       id="path3787-0"
       inkscape:connector-curvature="0"
       sodipodi:nodetypes="ccccccccccccc" />
  </g>
  <g
     inkscape:groupmode="layer"
     id="layer2"
     inkscape:label="Texte"
     style="display:inline"
     transform="translate(-57.578806,-125.58691)">
    <g
       transform="matrix(0.66464704,0,0,0.71493176,-27.031375,-10.706667)"
       style="font-style:normal;font-variant:normal;font-weight:normal;font-stretch:normal;font-size:36px;line-height:125%;font-family:Arial;-inkscape-font-specification:Arial;letter-spacing:0px;word-spacing:0px;fill:#ffffff;fill-opacity:1;stroke:none"
       id="flowRoot3789">
      <path
         d="m 186.97382,226.44423 c -0.7266,1.62892 -1.46869,3.01732 -2.27531,4.48814 -0.83296,1.51885 -1.69515,3.02481 -2.64551,4.47363 -0.87895,1.33995 -1.79036,2.66583 -2.82129,3.89356 -0.96581,1.15018 -2.0038,2.24894 -3.13701,3.23591 -0.85963,0.74869 -1.72625,1.53799 -2.75977,2.02148 -0.91443,0.42778 -1.93101,0.70265 -2.94086,0.72949 -0.3102,0.008 -0.63283,-0.0586 -0.91406,-0.17578 -0.28127,-0.11718 -0.52736,-0.27832 -0.73828,-0.4834 -0.21096,-0.20507 -0.37502,-0.44824 -0.49219,-0.72949 -0.1172,-0.28125 -0.1758,-0.58593 -0.17578,-0.91406 l 0.12024,-7.56695 -8.70957,9.0244 c -0.23438,0.23437 -0.48927,0.40722 -0.76465,0.51855 -0.2754,0.11133 -0.39541,0.1633 -0.60609,0.16699 -0.27995,0.005 -0.5384,-0.0763 -0.81379,-0.1935 -0.27539,-0.11718 -0.51855,-0.27832 -0.72949,-0.4834 -0.21094,-0.20507 -0.37793,-0.44824 -0.50098,-0.72949 -0.12304,-0.28125 -0.18457,-0.58593 -0.18457,-0.91406 v -16.69922 l 4.89127,0.0177 v 10.06937 l 8.46416,-9.41898 c 0.29487,-0.32813 0.73482,-0.54098 1.16894,-0.62402 0.43721,-0.0836 0.91678,-0.0226 1.32715,0.14941 0.4076,0.17081 0.78266,0.46865 1.02832,0.83496 0.24387,0.36364 0.37793,0.8195 0.37793,1.25684 v 10.38406 c 0.98435,-0.94921 1.76384,-1.84507 2.55162,-2.84612 0.73608,-0.93535 1.37882,-1.94101 2.02323,-2.94126 0.71873,-1.11562 1.41456,-2.24753 2.05384,-3.41016 0.56285,-1.02364 0.99195,-1.98616 1.56619,-3.13462 z"
         style="font-family:Audiowide;-inkscape-font-specification:Audiowide;letter-spacing:0.00212772px;fill:#ffffff;fill-opacity:1;stroke:#b64a00;stroke-width:1.79227;stroke-miterlimit:4;stroke-dasharray:none;stroke-opacity:1"
         id="path3825"
         inkscape:connector-curvature="0"
         sodipodi:nodetypes="caaaaaaccccccsasccscccsaaascaaacc" />
    </g>
  </g>
</svg>
