<?xml version="1.0" encoding="UTF-8" standalone="no"?>
<svg
   xmlns:dc="http://purl.org/dc/elements/1.1/"
   xmlns:cc="http://creativecommons.org/ns#"
   xmlns:rdf="http://www.w3.org/1999/02/22-rdf-syntax-ns#"
   xmlns:svg="http://www.w3.org/2000/svg"
   xmlns="http://www.w3.org/2000/svg"
   xmlns:sodipodi="http://sodipodi.sourceforge.net/DTD/sodipodi-0.dtd"
   xmlns:inkscape="http://www.inkscape.org/namespaces/inkscape"
   id="svg2"
   version="1.1"
   inkscape:version="1.0.1 (3bc2e813f5, 2020-09-07)"
   width="32"
   height="32"
   sodipodi:docname="HW_letters.svg"
   inkscape:export-filename="E:\WEBMASTER\Symfony\hourraweb\assets\images\logos\HW.png"
   inkscape:export-xdpi="96"
   inkscape:export-ydpi="96">
  <metadata
     id="metadata8">
    <rdf:RDF>
      <cc:Work
         rdf:about="">
        <dc:format>image/svg+xml</dc:format>
        <dc:type
           rdf:resource="http://purl.org/dc/dcmitype/StillImage" />
        <dc:title></dc:title>
      </cc:Work>
    </rdf:RDF>
  </metadata>
  <defs
     id="defs6" />
  <sodipodi:namedview
     pagecolor="#ffffff"
     bordercolor="#666666"
     borderopacity="1"
     objecttolerance="10"
     gridtolerance="10"
     guidetolerance="10"
     inkscape:pageopacity="0"
     inkscape:pageshadow="2"
     inkscape:window-width="1600"
     inkscape:window-height="877"
     id="namedview4"
     showgrid="false"
     inkscape:zoom="5.6568542"
     inkscape:cx="5.2599727"
     inkscape:cy="56.849581"
     inkscape:window-x="-8"
     inkscape:window-y="96"
     inkscape:window-maximized="1"
     inkscape:current-layer="layer2"
     inkscape:document-rotation="0"
     fit-margin-top="10"
     fit-margin-left="10"
     fit-margin-right="10"
     fit-margin-bottom="10" />
  <g
     inkscape:groupmode="layer"
     id="layer3"
     inkscape:label="Corps"
     style="display:inline"
     transform="translate(-64.337488,-130.80688)">
    <path
       d="m 69.540877,136.59036 -0.02855,4.26356 8.094143,0.0366 0.02855,-4.26356 2.631367,0.0104 -0.06982,10.95569 -2.631371,-0.0103 0.02855,-4.38553 -8.094142,-0.0365 -0.02855,4.38552 -2.60087,-0.0103 0.06983,-10.9557"
       style="font-style:normal;font-variant:normal;font-weight:normal;font-stretch:normal;font-size:150.536px;line-height:125%;font-family:Audiowide;-inkscape-font-specification:Audiowide;letter-spacing:0px;word-spacing:0px;display:inline;fill:#3b4a72;fill-opacity:1;stroke:none;stroke-width:0.114677"
       id="path3787-0"
       inkscape:connector-curvature="0"
       sodipodi:nodetypes="cccccccccccc" />
  </g>
  <g
     inkscape:groupmode="layer"
     id="layer2"
     inkscape:label="Texte"
     style="display:inline"
     transform="translate(-64.337488,-130.80688)">
    <g
       transform="matrix(1.1032847,0,0,0.90638435,0,-69.296465)"
       style="font-style:normal;font-variant:normal;font-weight:normal;font-stretch:normal;font-size:37.6341px;line-height:125%;font-family:Arial;-inkscape-font-specification:Arial;letter-spacing:0px;word-spacing:0px;display:inline;fill:#000080;fill-opacity:0.00784314;stroke:none"
       id="text3760">
      <path
         d="m 40.009245,314.04373 63.974985,0.35138 0.22553,-41.01911 20.79798,0.10007 -0.55189,105.40343 -20.79799,-0.10007 0.22553,-42.19265 -63.97498,-0.35138 -0.225531,42.19265 -20.55696,-0.10006 0.551896,-105.40343 20.556961,0.10006 z"
         style="font-size:150.536px;font-family:Audiowide;-inkscape-font-specification:Audiowide;fill:#000080;fill-opacity:0.00784314"
         id="path3787"
         inkscape:connector-curvature="0"
         sodipodi:nodetypes="ccccccccccccc" />
    </g>
    <g
       transform="matrix(0.53797105,0,0,0.57867194,-6.2963444,16.740957)"
       style="font-style:normal;font-variant:normal;font-weight:normal;font-stretch:normal;font-size:36px;line-height:125%;font-family:Arial;-inkscape-font-specification:Arial;letter-spacing:0px;word-spacing:0px;fill:#3b4a72;fill-opacity:1;stroke:none"
       id="flowRoot3789">
      <path
         d="m 186.97382,226.44423 c -0.7266,1.62892 -1.46869,3.01732 -2.27531,4.48814 -0.83296,1.51885 -1.69515,3.02481 -2.64551,4.47363 -0.87895,1.33995 -1.79036,2.66583 -2.82129,3.89356 -0.96581,1.15018 -2.0038,2.24894 -3.13701,3.23591 -0.85963,0.74869 -1.72625,1.53799 -2.75977,2.02148 -0.91443,0.42778 -1.93101,0.70265 -2.94086,0.72949 -0.3102,0.008 -0.63283,-0.0586 -0.91406,-0.17578 -0.28127,-0.11718 -0.52736,-0.27832 -0.73828,-0.4834 -0.21096,-0.20507 -0.37502,-0.44824 -0.49219,-0.72949 -0.1172,-0.28125 -0.1758,-0.58593 -0.17578,-0.91406 l 0.12024,-7.56695 -8.70957,9.0244 c -0.23438,0.23437 -0.48927,0.40722 -0.76465,0.51855 -0.2754,0.11133 -0.55958,0.16699 -0.85254,0.16699 -0.31641,0 -0.61231,-0.0586 -0.8877,-0.17578 -0.27539,-0.11718 -0.51855,-0.27832 -0.72949,-0.4834 -0.21094,-0.20507 -0.37793,-0.44824 -0.50098,-0.72949 -0.12304,-0.28125 -0.18457,-0.58593 -0.18457,-0.91406 v -16.69922 h 5.21163 v 10.06937 l 8.46416,-9.41898 c 0.29487,-0.32813 0.73482,-0.54098 1.16894,-0.62402 0.43721,-0.0836 0.91678,-0.0226 1.32715,0.14941 0.4076,0.17081 0.78266,0.46865 1.02832,0.83496 0.24387,0.36364 0.37793,0.8195 0.37793,1.25684 v 10.38406 c 0.98435,-0.94921 1.76384,-1.84507 2.55162,-2.84612 0.73608,-0.93535 1.37882,-1.94101 2.02323,-2.94126 0.71873,-1.11562 1.41456,-2.24753 2.05384,-3.41016 0.56285,-1.02364 0.99195,-1.98616 1.56619,-3.13462 z"
         style="font-family:Audiowide;-inkscape-font-specification:Audiowide;letter-spacing:0.00212772px;fill:#ff6800;fill-opacity:1"
         id="path3825"
         inkscape:connector-curvature="0"
         sodipodi:nodetypes="caaaaaacccccccssccscccsaaascaaacc" />
    </g>
  </g>
</svg>
