<?xml version="1.0" encoding="UTF-8" standalone="no"?>
<svg
   xmlns:dc="http://purl.org/dc/elements/1.1/"
   xmlns:cc="http://creativecommons.org/ns#"
   xmlns:rdf="http://www.w3.org/1999/02/22-rdf-syntax-ns#"
   xmlns:svg="http://www.w3.org/2000/svg"
   xmlns="http://www.w3.org/2000/svg"
   xmlns:sodipodi="http://sodipodi.sourceforge.net/DTD/sodipodi-0.dtd"
   xmlns:inkscape="http://www.inkscape.org/namespaces/inkscape"
   id="svg2"
   version="1.1"
   inkscape:version="1.0.1 (3bc2e813f5, 2020-09-07)"
   width="1056"
   height="364"
   sodipodi:docname="HW_W.svg">
  <metadata
     id="metadata8">
    <rdf:RDF>
      <cc:Work
         rdf:about="">
        <dc:format>image/svg+xml</dc:format>
        <dc:type
           rdf:resource="http://purl.org/dc/dcmitype/StillImage" />
        <dc:title></dc:title>
      </cc:Work>
    </rdf:RDF>
  </metadata>
  <defs
     id="defs6" />
  <sodipodi:namedview
     pagecolor="#ffffff"
     bordercolor="#666666"
     borderopacity="1"
     objecttolerance="10"
     gridtolerance="10"
     guidetolerance="10"
     inkscape:pageopacity="0"
     inkscape:pageshadow="2"
     inkscape:window-width="1920"
     inkscape:window-height="1057"
     id="namedview4"
     showgrid="false"
     inkscape:zoom="0.5"
     inkscape:cx="614.5359"
     inkscape:cy="-203.33251"
     inkscape:window-x="-8"
     inkscape:window-y="53"
     inkscape:window-maximized="1"
     inkscape:current-layer="layer1"
     inkscape:document-rotation="0" />
  <g
     inkscape:groupmode="layer"
     id="layer1"
     inkscape:label="Tête"
     style="display:inline">
    <circle
       style="color:#000000;display:inline;overflow:visible;visibility:visible;fill:#ffffff;fill-opacity:0.992157;fill-rule:nonzero;stroke:#ffffff;stroke-width:1;stroke-linecap:butt;stroke-linejoin:miter;stroke-miterlimit:4;stroke-dasharray:none;stroke-dashoffset:0;stroke-opacity:0.992157;marker:none;enable-background:accumulate"
       id="path2988"
       transform="matrix(0.98897543,0.2199309,-0.30829212,1.0734658,-27.927982,-23.132853)"
       cx="272.64957"
       cy="25.91453"
       r="40.991451" />
  </g>
  <g
     inkscape:groupmode="layer"
     id="layer2"
     inkscape:label="Texte"
     style="display:inline">
    <g
       transform="scale(1.1032847,0.90638435)"
       style="font-size:37.63409805px;font-style:normal;font-variant:normal;font-weight:normal;font-stretch:normal;line-height:125%;letter-spacing:0px;word-spacing:0px;fill:#ffffff;fill-opacity:0.00784314;stroke:none;display:inline;font-family:Arial;-inkscape-font-specification:Arial"
       id="text3760">
      <path
         d="m 40.009245,314.04373 63.974985,0.35138 0.22553,-41.01911 20.79798,0.10007 -0.55189,105.40343 -20.79799,-0.10007 0.22553,-42.19265 -63.97498,-0.35138 -0.225531,42.19265 -20.55696,-0.10006 0.551896,-105.40343 20.556961,0.10006 z"
         style="font-size:150.53639221px;fill:#ffffff;fill-opacity:0.00784314;font-family:Audiowide;-inkscape-font-specification:Audiowide"
         id="path3787"
         inkscape:connector-curvature="0"
         sodipodi:nodetypes="ccccccccccccc" />
    </g>
    <g
       transform="matrix(4.6912215,0,0,4.70851,-577.94539,-974.68957)"
       style="font-size:36px;font-style:normal;font-variant:normal;font-weight:normal;font-stretch:normal;line-height:125%;letter-spacing:0px;word-spacing:0px;fill:#ffffff;fill-opacity:1;stroke:none;font-family:Arial;-inkscape-font-specification:Arial"
       id="flowRoot3789">
      <path
         d="m 177.84766,273.11648 c -3e-5,0.78516 -0.0996,1.49121 -0.29883,2.11816 -0.19924,0.62696 -0.46291,1.17774 -0.79102,1.65235 -0.32814,0.47461 -0.709,0.8789 -1.14258,1.21289 -0.43361,0.33398 -0.88771,0.60644 -1.3623,0.81738 -0.47463,0.21094 -0.9551,0.36621 -1.44141,0.46582 -0.48634,0.0996 -0.9463,0.14941 -1.37988,0.14941 l -8.24414,0 c -0.63282,0 -1.32423,-0.11132 -2.07422,-0.33398 -0.75,-0.22266 -1.44434,-0.58887 -2.08301,-1.09863 -0.63867,-0.50977 -1.17187,-1.17188 -1.59961,-1.98633 -0.42773,-0.81445 -0.6416,-1.81347 -0.6416,-2.99707 l 0,-6.1875 c 0,-1.17186 0.21387,-2.16503 0.6416,-2.97949 0.42774,-0.81444 0.96094,-1.47655 1.59961,-1.98633 0.63867,-0.50975 1.33301,-0.87596 2.08301,-1.09863 0.74999,-0.22264 1.4414,-0.33397 2.07422,-0.33399 l 8.24414,0 c 1.17186,2e-5 2.16795,0.21096 2.98828,0.63281 0.82029,0.4219 1.4824,0.95217 1.98633,1.59082 0.50388,0.63869 0.87009,1.33303 1.09863,2.08301 0.2285,0.75002 0.34275,1.44728 0.34278,2.0918 z m -5.08048,-5.58758 c -1e-5,-0.63279 -0.15822,-1.10154 -0.47461,-1.40625 -0.31642,-0.30467 -0.77345,-0.45701 -1.37109,-0.45703 l -7.24534,0 c -0.60939,2e-5 -1.07228,0.15529 -1.38868,0.46582 -0.31641,0.31056 -0.47461,0.76467 -0.47461,1.36231 l 0,5.39682 c 0,0.59766 0.1582,1.05469 0.47461,1.37109 0.3164,0.31641 0.77929,0.47462 1.38868,0.47461 l 7.24534,0 c 0.62108,1e-5 1.08397,-0.1582 1.38867,-0.47461 0.30467,-0.3164 0.45702,-0.77343 0.45703,-1.37109 z"
         style="letter-spacing:0.00212772px;fill:#ffffff;fill-opacity:1;font-family:Audiowide;-inkscape-font-specification:Audiowide"
         id="path3815"
         inkscape:connector-curvature="0"
         sodipodi:nodetypes="csccccssssssscccccccccccccccsscccccc" />
      <path
         d="m 202.2109,277.22976 c -3e-5,0.32813 -0.0586,0.63281 -0.17579,0.91406 -0.11721,0.28125 -0.27834,0.52442 -0.48339,0.72949 -0.2051,0.20508 -0.44534,0.36622 -0.72071,0.4834 -0.27541,0.11719 -0.57131,0.17578 -0.88769,0.17578 l -10.33594,0 c -0.56251,0 -1.16309,-0.0645 -1.80176,-0.19336 -0.63868,-0.1289 -1.26856,-0.33691 -1.88965,-0.62402 -0.6211,-0.28711 -1.22168,-0.65039 -1.80175,-1.08984 -0.58009,-0.43945 -1.08692,-0.97266 -1.52051,-1.59961 -0.4336,-0.62695 -0.78223,-1.35058 -1.0459,-2.1709 -0.26367,-0.82031 -0.39551,-1.74609 -0.39551,-2.77734 l 0,-10.54688 5.08047,0 0,10.2645 c 0,0.59766 0.10254,1.13379 0.30762,1.60839 0.20507,0.47462 0.48339,0.88185 0.83496,1.22168 0.35156,0.33985 0.76464,0.6006 1.23926,0.78223 0.4746,0.18165 0.9873,0.27247 1.53809,0.27246 l 6.86434,0 0,-14.14926 5.19386,0 z"
         style="letter-spacing:0.00212772px;fill:#ffffff;fill-opacity:1;font-family:Audiowide;-inkscape-font-specification:Audiowide"
         id="path3817"
         inkscape:connector-curvature="0"
         sodipodi:nodetypes="ccccsscscsssccscccccccc" />
      <path
         d="m 222.71267,265.77857 -9.99978,0 c -0.62111,2e-5 -1.08985,0.15529 -1.40625,0.46582 -0.31642,0.31056 -0.47462,0.76467 -0.47461,1.36231 l 0,11.92579 -4.85374,0 0,-12.60351 c 0,-0.78514 0.0996,-1.48827 0.29883,-2.10938 0.19922,-0.62107 0.46582,-1.16893 0.79981,-1.64355 0.33398,-0.47459 0.71777,-0.87889 1.15136,-1.21289 0.43359,-0.33397 0.88769,-0.60643 1.36231,-0.81738 0.4746,-0.21092 0.95507,-0.3662 1.44141,-0.46582 0.48632,-0.0996 0.94042,-0.1494 1.3623,-0.14942 l 10.31836,0 z"
         style="letter-spacing:0.00212772px;fill:#ffffff;fill-opacity:1;font-family:Audiowide;-inkscape-font-specification:Audiowide"
         id="path3819"
         inkscape:connector-curvature="0"
         sodipodi:nodetypes="ccccccssccccccc" />
      <path
         d="m 242.16193,265.77857 -10.16984,0 c -0.6211,2e-5 -1.08985,0.15529 -1.40625,0.46582 -0.31641,0.31056 -0.47461,0.76467 -0.47461,1.36231 l 0,11.92579 -5.13715,0 0,-12.60351 c 0,-0.78514 0.0996,-1.48827 0.29883,-2.10938 0.19922,-0.62107 0.46582,-1.16893 0.7998,-1.64355 0.33398,-0.47459 0.71777,-0.87889 1.15137,-1.21289 0.43359,-0.33397 0.88769,-0.60643 1.36231,-0.81738 0.4746,-0.21092 0.95507,-0.3662 1.4414,-0.46582 0.48632,-0.0996 0.94042,-0.1494 1.36231,-0.14942 l 10.77183,0 z"
         style="letter-spacing:0.00212772px;fill:#ffffff;fill-opacity:1;font-family:Audiowide;-inkscape-font-specification:Audiowide"
         id="path3821"
         inkscape:connector-curvature="0"
         sodipodi:nodetypes="cccsccssccccccc" />
      <path
         d="m 299.09814,260.85002 c -0.7266,1.62892 -1.46869,3.01732 -2.27531,4.48814 -0.83296,1.51885 -1.69515,3.02481 -2.64551,4.47363 -0.87895,1.33995 -1.79036,2.66583 -2.82129,3.89356 -0.96581,1.15018 -2.0038,2.24894 -3.13701,3.23591 -0.85963,0.74869 -1.72625,1.53799 -2.75977,2.02148 -0.91443,0.42778 -1.93101,0.70265 -2.94086,0.72949 -0.3102,0.008 -0.63283,-0.0586 -0.91406,-0.17578 -0.28127,-0.11718 -0.52736,-0.27832 -0.73828,-0.4834 -0.21096,-0.20507 -0.37502,-0.44824 -0.49219,-0.72949 -0.1172,-0.28125 -0.1758,-0.58593 -0.17578,-0.91406 l 0.12024,-7.56695 -8.70957,9.0244 c -0.23438,0.23437 -0.48927,0.40722 -0.76465,0.51855 -0.2754,0.11133 -0.55958,0.16699 -0.85254,0.16699 -0.31641,0 -0.61231,-0.0586 -0.8877,-0.17578 -0.27539,-0.11718 -0.51855,-0.27832 -0.72949,-0.4834 -0.21094,-0.20507 -0.37793,-0.44824 -0.50098,-0.72949 -0.12304,-0.28125 -0.18457,-0.58593 -0.18457,-0.91406 l 0,-16.69922 5.21163,0 0,10.06937 8.46416,-9.41898 c 0.29487,-0.32813 0.73482,-0.54098 1.16894,-0.62402 0.43721,-0.0836 0.91678,-0.0226 1.32715,0.14941 0.4076,0.17081 0.78266,0.46865 1.02832,0.83496 0.24387,0.36364 0.37793,0.8195 0.37793,1.25684 l 0,10.38406 c 0.98435,-0.94921 1.76384,-1.84507 2.55162,-2.84612 0.73608,-0.93535 1.37882,-1.94101 2.02323,-2.94126 0.71873,-1.11562 1.41456,-2.24753 2.05384,-3.41016 0.56285,-1.02364 0.99195,-1.98616 1.56619,-3.13462 z"
         style="letter-spacing:0.00212772px;fill:#ffffff;fill-opacity:1;font-family:Audiowide;-inkscape-font-specification:Audiowide"
         id="path3825"
         inkscape:connector-curvature="0"
         sodipodi:nodetypes="caaaaaacccccccssccscccsaaascaaacc" />
      <path
         d="m 320.41704,267.10589 c 0.0177,0.69134 -0.11331,1.39216 -0.33398,2.04785 -0.24528,0.72881 -0.59103,1.44533 -1.08106,2.03906 -0.53142,0.64388 -1.1967,1.21288 -1.95117,1.57325 -0.90019,0.42997 -1.77834,0.63281 -2.92676,0.63281 l -8.44254,0 0,-4.79361 7.90403,0 c 0.62108,10e-6 1.05681,-0.22692 1.44141,-0.57129 0.27097,-0.24262 0.51701,-0.60033 0.50976,-0.96323 -0.008,-0.37846 -0.28081,-0.73868 -0.57129,-0.98267 -0.37507,-0.31503 -0.84083,-0.50975 -1.37988,-0.50976 l -7.25215,0 c -0.51708,0 -1.05886,0.22466 -1.44141,0.57129 -0.27573,0.24983 -0.50976,0.62014 -0.50976,0.99146 l 0,6.38086 c 0,0.39183 0.25398,0.79701 0.57129,1.02849 0.38821,0.2832 0.93389,0.28386 1.41504,0.28386 l 7.7555,0 0,4.98061 -8.24414,0 c -0.63282,0 -1.3925,-0.11351 -2.04785,-0.33398 -0.72946,-0.2454 -1.446,-0.59187 -2.03906,-1.08105 -0.64499,-0.53202 -1.2132,-1.19797 -1.57325,-1.95118 -0.43069,-0.901 -0.63281,-1.77831 -0.63281,-2.92675 l 0,-6.41602 c 0,-0.6328 0.11133,-1.31542 0.33399,-2.04785 0.22265,-0.73241 0.583,-1.41209 1.08105,-2.03906 0.49804,-0.62694 1.14843,-1.15135 1.95117,-1.57325 0.80273,-0.42185 1.77832,-0.63279 2.92676,-0.63281 l 8.24414,0 c 0.6328,2e-5 1.3925,0.11352 2.04785,0.33399 0.72947,0.2454 1.44601,0.59187 2.03907,1.08105 0.64499,0.53202 1.21319,1.19796 1.57324,1.95117 0.43069,0.901 0.60722,1.92912 0.63281,2.92676 z"
         style="letter-spacing:0.00212772px;fill:#ffffff;fill-opacity:1;font-family:Audiowide;-inkscape-font-specification:Audiowide"
         id="path3827"
         inkscape:connector-curvature="0"
         sodipodi:nodetypes="aaaascccaaacsassasccsaaasssccccaaaa" />
      <path
         d="m 344.02826,273.11648 c -2e-5,0.4336 -0.0498,0.89063 -0.14941,1.37109 -0.0996,0.48048 -0.25491,0.95801 -0.46582,1.43262 -0.21096,0.47461 -0.48342,0.92871 -0.81738,1.3623 -0.33401,0.4336 -0.73831,0.81739 -1.21289,1.15137 -0.47463,0.33399 -1.02248,0.60059 -1.64356,0.79981 -0.62111,0.19921 -1.32423,0.29882 -2.10937,0.29882 l -8.24414,0 c -0.43361,0 -0.89064,-0.0498 -1.3711,-0.14941 -0.48047,-0.0996 -0.95801,-0.25488 -1.43262,-0.46582 -0.47461,-0.21094 -0.92871,-0.4834 -1.3623,-0.81738 -0.4336,-0.33399 -0.81739,-0.73828 -1.15137,-1.21289 -0.33398,-0.47461 -0.60059,-1.02539 -0.7998,-1.65235 -0.19922,-0.62695 -0.29883,-1.333 -0.29883,-2.11816 l 0,-20.61914 5.13716,0 0,20.61914 c 0,0.5625 0.17578,0.72837 0.52735,1.06235 0.35155,0.33398 0.791,0.50098 1.31836,0.50097 l 7.67729,0 c 0.5742,10e-6 0.62565,-0.16992 0.94793,-0.50976 0.32225,-0.33984 0.48338,-0.50277 0.4834,-1.05356 l 0,-5.56626 c -2e-5,-0.57421 -0.16994,-1.02245 -0.50976,-1.34473 -0.33987,-0.32225 -0.38253,-0.48338 -0.92157,-0.4834 l -8.24414,0 0,-5.19155 8.24414,0 c 0.43357,2e-5 0.8906,0.0498 1.37109,0.14942 0.48045,0.0996 0.95799,0.2549 1.43262,0.46582 0.47459,0.21095 0.92869,0.48341 1.3623,0.81738 0.43357,0.334 0.81443,0.7383 1.14258,1.21289 0.3281,0.47462 0.59177,1.02248 0.79102,1.64355 0.19919,0.62111 0.2988,1.32424 0.29882,2.10938 z"
         style="letter-spacing:0.00212772px;fill:#ffffff;fill-opacity:1;font-family:Audiowide;-inkscape-font-specification:Audiowide"
         id="path3829"
         inkscape:connector-curvature="0"
         sodipodi:nodetypes="ccccccsscssscsccscccccccccccccccccc" />
    </g>
  </g>
  <g
     inkscape:groupmode="layer"
     id="layer3"
     inkscape:label="Corps"
     style="display:inline">
    <path
       d="m 44.982748,247.25223 -0.248825,37.17908 70.582627,0.31849 0.24882,-37.17908 22.94609,0.0907 -0.60889,95.53602 -22.9461,-0.0907 0.24882,-38.24276 -70.582617,-0.31848 -0.248825,38.24275 -22.680178,-0.0907 0.608898,-95.53602 C 51.001254,204.30548 107.8037,164.76313 172.99145,141.74359 155.27319,129.48447 137.54129,117.12758 113.94872,62.769227 c -2.94257,-8.65637 -0.73676,-13.080613 4.06743,-15.120725 5.29754,-2.249614 10.69155,1.359719 15.11206,8.351498 17.02913,30.552877 34.71378,60.25745 68.44444,69.19658 25.19898,7.52617 42.29838,-2.27505 59.79488,-10.15384 46.88105,-27.416772 82.56255,-56.966489 115.45298,-88.752142 4.47796,-4.170751 8.65508,-1.825933 11.23605,-0.119028 2.58096,1.706906 6.88897,6.948997 2.30241,13.281421 -25.74177,32.646983 -57.74585,61.119099 -95.52136,85.743589 105.03619,28.53667 292.11366,81.77594 355.55105,138.19485 2.94107,2.21964 5.40119,5.1182 7.38042,8.69558 1.97899,3.57753 2.96856,7.92537 2.96865,13.04342 l 0,28.5937 c -9e-5,2.82021 -0.52237,5.86238 -1.56677,9.12651 -1.04464,3.26408 -2.73513,6.2932 -5.07149,9.08728 -2.33651,2.79408 -5.38764,5.13119 -9.15338,7.0113 -3.76587,1.88015 -8.34254,2.82021 -13.73007,2.82021 0,0 -25.82145,0.98981 -38.67509,0 -3.23094,-0.24881 -6.47336,-0.66272 -9.60692,-1.48841 -3.66303,-0.96521 -7.49012,-1.90005 -10.62937,-4.02008 -2.46697,-1.66603 -4.58141,-3.97937 -6.05083,-6.56827 -1.8733,-3.3005 -3.00932,-7.12769 -3.23455,-10.91607 -0.18395,-3.09408 0.53823,-6.24177 1.56677,-9.16568 1.15489,-3.28309 2.79715,-6.49208 5.07145,-9.12646 2.51157,-2.90922 5.38758,-5.1311 9.15342,-7.0113 3.76578,-1.88011 8.34244,-2.82021 13.73003,-2.82021 l 38.67509,0 0,20.75761 -38.67509,0 c -2.40847,0 -5.0553,0.84659 -6.76193,2.54603 -1.0564,1.05195 -1.72193,2.69363 -1.59365,4.17894 0.11023,1.27624 0.96963,2.49611 1.96473,3.30279 1.7933,1.45373 4.24729,2.23268 6.55579,2.23268 l 36.38277,0 c 2.91362,0 5.16762,-0.83562 6.76197,-2.50686 1.59422,-1.67119 2.39135,-3.76021 2.39145,-6.26707 l 0,-29.76664 c -1e-4,-2.66341 -0.86595,-4.77857 -2.59758,-6.34542 -1.73181,-1.56676 -3.91707,-2.35016 -6.55584,-2.35016 l -45.75663,0 0,-19.34972 C 550.51921,207.20722 397.35763,172.27215 289.2447,153.37691 c -32.62881,-3.31555 -49.49049,-8.15025 -91.08732,2.29177 -65.6045,21.80007 -114.188486,53.81246 -153.174632,91.58355 z"
       style="font-size:150.53639221px;font-style:normal;font-variant:normal;font-weight:normal;font-stretch:normal;line-height:125%;letter-spacing:0px;word-spacing:0px;fill:#ffffff;fill-opacity:1;stroke:none;display:inline;font-family:Audiowide;-inkscape-font-specification:Audiowide"
       id="path3787-0"
       inkscape:connector-curvature="0"
       sodipodi:nodetypes="ccccccccccccccaccccsccccccccssaaaaaaacsccsaaassccccsccccc" />
  </g>
</svg>
