<?xml version="1.0" encoding="UTF-8" standalone="no"?>
<svg
   xmlns:dc="http://purl.org/dc/elements/1.1/"
   xmlns:cc="http://creativecommons.org/ns#"
   xmlns:rdf="http://www.w3.org/1999/02/22-rdf-syntax-ns#"
   xmlns:svg="http://www.w3.org/2000/svg"
   xmlns="http://www.w3.org/2000/svg"
   xmlns:sodipodi="http://sodipodi.sourceforge.net/DTD/sodipodi-0.dtd"
   xmlns:inkscape="http://www.inkscape.org/namespaces/inkscape"
   id="svg2"
   version="1.1"
   inkscape:version="1.0.1 (3bc2e813f5, 2020-09-07)"
   width="156.13153"
   height="121.24727"
   sodipodi:docname="logo_HW.svg"
   inkscape:export-filename="E:\WEBMASTER\Symfony\lashoze\assets\images\logo_HW.png"
   inkscape:export-xdpi="68"
   inkscape:export-ydpi="68">
  <metadata
     id="metadata8">
    <rdf:RDF>
      <cc:Work
         rdf:about="">
        <dc:format>image/svg+xml</dc:format>
        <dc:type
           rdf:resource="http://purl.org/dc/dcmitype/StillImage" />
        <dc:title></dc:title>
      </cc:Work>
    </rdf:RDF>
  </metadata>
  <defs
     id="defs6" />
  <sodipodi:namedview
     pagecolor="#ffffff"
     bordercolor="#666666"
     borderopacity="1"
     objecttolerance="10"
     gridtolerance="10"
     guidetolerance="10"
     inkscape:pageopacity="0"
     inkscape:pageshadow="2"
     inkscape:window-width="1920"
     inkscape:window-height="1057"
     id="namedview4"
     showgrid="false"
     inkscape:zoom="4"
     inkscape:cx="72.189231"
     inkscape:cy="70.928947"
     inkscape:window-x="1912"
     inkscape:window-y="-8"
     inkscape:window-maximized="1"
     inkscape:current-layer="layer2"
     inkscape:document-rotation="0"
     fit-margin-top="0"
     fit-margin-left="0"
     fit-margin-right="0"
     fit-margin-bottom="0" />
  <g
     inkscape:groupmode="layer"
     id="layer2"
     inkscape:label="Texte"
     style="display:inline"
     transform="translate(-555.39178,-142.53713)">
    <g
       transform="matrix(2.588498,0,0,2.5980374,-72.545671,-470.52047)"
       style="font-style:normal;font-variant:normal;font-weight:normal;font-stretch:normal;font-size:36px;line-height:125%;font-family:Arial;-inkscape-font-specification:Arial;letter-spacing:0px;word-spacing:0px;fill:#3b4a72;fill-opacity:1;stroke:none"
       id="flowRoot3789">
      <path
         d="m 302.905,261.07337 c -0.83157,1.86424 -1.68086,3.45321 -2.60401,5.13651 -0.95329,1.73827 -1.94003,3.46178 -3.02768,5.1199 -1.00593,1.53353 -2.04901,3.05095 -3.22887,4.45604 -1.10533,1.31634 -2.29327,2.57383 -3.59019,3.70338 -0.98381,0.85684 -1.97563,1.76017 -3.15845,2.3135 -1.04653,0.48958 -2.20997,0.80416 -3.36571,0.83488 -0.35501,0.009 -0.72425,-0.0671 -1.0461,-0.20117 -0.32191,-0.13411 -0.60355,-0.31853 -0.84494,-0.55324 -0.24143,-0.23469 -0.42919,-0.51299 -0.56329,-0.83487 -0.13413,-0.32188 -0.2012,-0.67058 -0.20117,-1.04611 l 0.13761,-8.66009 -9.96778,10.32809 c -0.26824,0.26823 -0.55995,0.46605 -0.87512,0.59346 -0.31518,0.12741 -0.64041,0.19111 -0.9757,0.19111 -0.36211,0 -0.70076,-0.0671 -1.01593,-0.20117 -0.31518,-0.13411 -0.59347,-0.31853 -0.83488,-0.55323 -0.24141,-0.2347 -0.43253,-0.513 -0.57335,-0.83488 -0.14082,-0.32188 -0.21124,-0.67057 -0.21124,-1.04611 v -19.11163 h 5.96452 v 11.52402 l 9.68692,-10.77967 c 0.33746,-0.37554 0.84097,-0.61914 1.3378,-0.71417 0.50038,-0.0957 1.04922,-0.0259 1.51888,0.17099 0.46648,0.19549 0.89572,0.53636 1.17687,0.95558 0.2791,0.41618 0.43253,0.93789 0.43253,1.43841 v 11.88417 c 1.12655,-1.08634 2.01865,-2.11161 2.92023,-3.25728 0.84242,-1.07047 1.57801,-2.22141 2.31551,-3.36616 0.82256,-1.27679 1.61892,-2.57222 2.35055,-3.9028 0.64416,-1.17152 1.13525,-2.27309 1.79244,-3.58746 z"
         style="font-family:Audiowide;-inkscape-font-specification:Audiowide;letter-spacing:0.00212772px;fill:#ff6800;fill-opacity:1;stroke-width:1.14446"
         id="path3825"
         inkscape:connector-curvature="0"
         sodipodi:nodetypes="caaaaaacccccccssccscccsaaascaaacc" />
    </g>
  </g>
  <g
     inkscape:groupmode="layer"
     id="layer3"
     inkscape:label="Corps"
     style="display:inline"
     transform="translate(-555.39178,-142.53713)">
    <path
       d="m 571.1446,142.59796 -0.1683,24.90513 47.74237,0.21335 0.16831,-24.90515 15.42215,0.0608 -0.41187,63.99666 -15.42215,-0.0608 0.1683,-25.61767 -47.74237,-0.21334 -0.16829,25.61765 -15.34097,-0.0608 0.41187,-63.99666 z"
       style="font-style:normal;font-variant:normal;font-weight:normal;font-stretch:normal;font-size:150.536px;line-height:125%;font-family:Audiowide;-inkscape-font-specification:Audiowide;letter-spacing:0px;word-spacing:0px;display:inline;fill:#3b4a72;fill-opacity:1;stroke:none;stroke-width:0.673127"
       id="path3787-0"
       inkscape:connector-curvature="0"
       sodipodi:nodetypes="ccccccccccccc" />
  </g>
</svg>
