<?xml version="1.0" encoding="UTF-8" standalone="no"?>
<svg
   xmlns:dc="http://purl.org/dc/elements/1.1/"
   xmlns:cc="http://creativecommons.org/ns#"
   xmlns:rdf="http://www.w3.org/1999/02/22-rdf-syntax-ns#"
   xmlns:svg="http://www.w3.org/2000/svg"
   xmlns="http://www.w3.org/2000/svg"
   xmlns:sodipodi="http://sodipodi.sourceforge.net/DTD/sodipodi-0.dtd"
   xmlns:inkscape="http://www.inkscape.org/namespaces/inkscape"
   width="73.947136"
   height="74.004402"
   viewBox="0 0 19.56518 19.580331"
   version="1.1"
   id="svg8"
   inkscape:version="1.0.1 (3bc2e813f5, 2020-09-07)"
   sodipodi:docname="operateur.svg">
  <defs
     id="defs2" />
  <sodipodi:namedview
     id="base"
     pagecolor="#ffffff"
     bordercolor="#666666"
     borderopacity="1.0"
     inkscape:pageopacity="0.0"
     inkscape:pageshadow="2"
     inkscape:zoom="5.6"
     inkscape:cx="41.866891"
     inkscape:cy="42.335152"
     inkscape:document-units="mm"
     inkscape:current-layer="layer2"
     inkscape:document-rotation="0"
     showgrid="false"
     inkscape:window-width="1920"
     inkscape:window-height="1057"
     inkscape:window-x="1912"
     inkscape:window-y="-8"
     inkscape:window-maximized="1"
     fit-margin-top="5"
     fit-margin-left="5"
     fit-margin-right="5"
     fit-margin-bottom="5"
     units="px"
     lock-margins="true" />
  <metadata
     id="metadata5">
    <rdf:RDF>
      <cc:Work
         rdf:about="">
        <dc:format>image/svg+xml</dc:format>
        <dc:type
           rdf:resource="http://purl.org/dc/dcmitype/StillImage" />
        <dc:title></dc:title>
      </cc:Work>
    </rdf:RDF>
  </metadata>
  <g
     inkscape:groupmode="layer"
     id="layer2"
     inkscape:label="dessin"
     style="display:inline"
     transform="translate(-57.13939,-132.96414)">
    <path
       id="path886"
       style="fill:#ff6600;fill-rule:evenodd;stroke:#ff6600;stroke-width:0.767013;stroke-linecap:butt;stroke-linejoin:miter;stroke-miterlimit:4;stroke-dasharray:none;stroke-opacity:1"
       d="m 66.665528,134.67167 c -2.112038,0.007 -3.31062,0.43819 -4.559691,1.39766 -1.284519,0.98671 -2.15327,2.51267 -2.207955,4.62961 -0.597876,0.0961 -1.051998,0.62022 -1.051998,1.2566 v 3.10897 c 0,0.70501 0.557471,1.26748 1.250088,1.27263 l 0.547722,0.004 c 0.515182,0.004 0.829082,-0.61281 0.829082,-0.61281 0,0 1.195868,5.06082 5.330329,5.10807 4.13446,0.0472 5.60962,-5.13183 5.60962,-5.13183 0,0 0.48453,0.63296 0.947523,0.63296 h 0.401869 c 0.692639,0 1.250087,-0.56761 1.250087,-1.27263 v -3.10897 c 0,-0.56305 -0.3558,-1.03785 -0.851838,-1.20648 -0.06875,-1.84102 -0.953056,-3.30189 -2.2514,-4.3294 -1.598121,-1.17423 -3.131398,-1.75466 -5.243438,-1.74799 z m 0.160334,0.92179 c 3.148279,0.0255 5.700732,1.80786 6.346639,4.63528 0.03258,0.14266 0.05379,0.44591 0.05379,0.44591 -0.391185,0.0324 -0.653232,0.44746 -0.653232,0.44746 -0.857877,-2.37517 -3.147956,-4.08531 -5.676339,-4.11859 -2.534905,-0.0333 -4.680513,1.78126 -5.596172,4.14184 -0.136447,-0.1459 -0.407559,-0.31621 -0.407559,-0.31621 -0.04627,-3.43285 2.784595,-5.26124 5.932873,-5.23569 z m -3.177198,4.03673 c 1.431073,-0.37084 2.364666,2.16434 3.468976,2.47276 1.446174,0.4039 2.713168,-0.92761 3.697435,-0.62381 0.772355,0.23842 1.502016,1.35709 1.537137,1.87407 0.187101,2.75407 -0.517679,4.04453 -1.772467,5.51161 -0.851604,0.99568 -2.202288,1.69095 -3.510797,1.77071 -1.182401,0.0721 -2.542174,-0.3315 -3.343738,-1.20287 -1.694024,-1.84153 -2.943048,-4.18549 -1.939524,-7.24873 0.149757,-0.45714 0.659564,-2.2419 1.862978,-2.55374 z"
       sodipodi:nodetypes="cccsscccccsssscccccccccccssscsssss" />
    <path
       style="fill:none;fill-rule:evenodd;stroke:#ff6600;stroke-width:0.700254;stroke-linecap:butt;stroke-linejoin:miter;stroke-miterlimit:4;stroke-dasharray:none;stroke-opacity:1"
       d="m 61.401845,144.78313 c 2.126982,3.05078 3.27612,3.41695 5.666586,3.34569"
       id="path850"
       sodipodi:nodetypes="cc" />
    <rect
       style="color:#000000;overflow:visible;fill:#ff6600;stroke:#ff6600;stroke-width:0.700254;stroke-linecap:square;stroke-miterlimit:4;stroke-dasharray:none;stop-color:#000000"
       id="rect852"
       width="3.1209671"
       height="1.4172192"
       x="65.815674"
       y="147.56194"
       rx="0.88664097"
       ry="0.66136867" />
  </g>
  <g
     inkscape:groupmode="layer"
     id="layer4"
     inkscape:label="face"
     style="display:none" />
  <g
     inkscape:groupmode="layer"
     id="layer3"
     inkscape:label="cheveux"
     style="display:none">
    <path
       style="fill:#ff6600;fill-rule:evenodd;stroke:#ff6600;stroke-width:0.679131;stroke-linecap:butt;stroke-linejoin:miter;stroke-miterlimit:4;stroke-dasharray:none;stroke-opacity:1"
       d="m 14.908671,8.6209801 c 0,0 -0.884595,-0.2676302 -1.904954,-0.8792363 C 11.991976,7.1353026 10.866358,7.549748 9.3668891,7.8539124 7.8674207,8.1580768 7.7881466,7.2422781 6.9609593,6.8856391 6.2760429,6.5903397 4.158781,8.18168 4.158781,8.18168 c 0,0 2.483813,-4.3896072 5.6305289,-4.1882 3.1467161,0.2014072 4.4197871,2.3646873 5.1193611,4.6275001 z"
       id="path841"
       sodipodi:nodetypes="cszsczc" />
  </g>
</svg>
