<?xml version="1.0" encoding="UTF-8" standalone="no"?>
<svg
   xmlns:dc="http://purl.org/dc/elements/1.1/"
   xmlns:cc="http://creativecommons.org/ns#"
   xmlns:rdf="http://www.w3.org/1999/02/22-rdf-syntax-ns#"
   xmlns:svg="http://www.w3.org/2000/svg"
   xmlns="http://www.w3.org/2000/svg"
   xmlns:sodipodi="http://sodipodi.sourceforge.net/DTD/sodipodi-0.dtd"
   xmlns:inkscape="http://www.inkscape.org/namespaces/inkscape"
   aria-hidden="true"
   focusable="false"
   data-prefix="fas"
   data-icon="phone"
   class="svg-inline--fa fa-phone fa-w-16"
   role="img"
   viewBox="0 0 527.0957 527.09375"
   version="1.1"
   id="svg4"
   sodipodi:docname="phone.svg"
   width="527.0957"
   height="527.09375"
   inkscape:version="1.0.1 (3bc2e813f5, 2020-09-07)">
  <metadata
     id="metadata10">
    <rdf:RDF>
      <cc:Work
         rdf:about="">
        <dc:format>image/svg+xml</dc:format>
        <dc:type
           rdf:resource="http://purl.org/dc/dcmitype/StillImage" />
        <dc:title></dc:title>
      </cc:Work>
    </rdf:RDF>
  </metadata>
  <defs
     id="defs8" />
  <sodipodi:namedview
     pagecolor="#ffffff"
     bordercolor="#666666"
     borderopacity="1"
     objecttolerance="10"
     gridtolerance="10"
     guidetolerance="10"
     inkscape:pageopacity="0"
     inkscape:pageshadow="2"
     inkscape:window-width="1920"
     inkscape:window-height="1057"
     id="namedview6"
     showgrid="false"
     inkscape:zoom="0.86914063"
     inkscape:cx="492.79324"
     inkscape:cy="326.43728"
     inkscape:window-x="1592"
     inkscape:window-y="-8"
     inkscape:window-maximized="1"
     inkscape:current-layer="svg4"
     fit-margin-top="0"
     fit-margin-left="0"
     fit-margin-right="0"
     fit-margin-bottom="0" />
  <path
     style="color:#000000;font-style:normal;font-variant:normal;font-weight:normal;font-stretch:normal;font-size:medium;line-height:normal;font-family:sans-serif;font-variant-ligatures:normal;font-variant-position:normal;font-variant-caps:normal;font-variant-numeric:normal;font-variant-alternates:normal;font-variant-east-asian:normal;font-feature-settings:normal;font-variation-settings:normal;text-indent:0;text-align:start;text-decoration:none;text-decoration-line:none;text-decoration-style:solid;text-decoration-color:#000000;letter-spacing:normal;word-spacing:normal;text-transform:none;writing-mode:lr-tb;direction:ltr;text-orientation:mixed;dominant-baseline:auto;baseline-shift:baseline;text-anchor:start;white-space:normal;shape-padding:0;shape-margin:0;inline-size:0;clip-rule:nonzero;display:inline;overflow:visible;visibility:visible;opacity:1;isolation:auto;mix-blend-mode:normal;color-interpolation:sRGB;color-interpolation-filters:linearRGB;solid-color:#000000;solid-opacity:1;vector-effect:none;fill:#ffffff;fill-opacity:1;fill-rule:nonzero;stroke:none;stroke-width:30;stroke-linecap:butt;stroke-linejoin:miter;stroke-miterlimit:4;stroke-dasharray:none;stroke-dashoffset:0;stroke-opacity:1;color-rendering:auto;image-rendering:auto;shape-rendering:auto;text-rendering:auto;enable-background:accumulate;stop-color:#000000;stop-opacity:1"
     d="m 391.20703,0 -36.4043,18.40039 -50.70703,118.31836 9.09375,36.90235 53.42578,43.72851 C 334.22846,280.56266 281.8274,333.57294 217.44922,366.51563 L 173.7207,313.08985 136.81836,303.9961 18.509765,354.69922 0,391.19336 l 25.109375,108.8086 1.445312,2.22265 c 0,0 3.559217,5.53678 8.962891,11.19922 5.403674,5.66244 12.605581,13.66992 26.318359,13.66992 256.618623,0 465.259763,-208.25002 465.259763,-465.259766 0,-13.737746 -8.00661,-20.862808 -13.65429,-26.267578 -5.64769,-5.404769 -11.16797,-8.982422 -11.16797,-8.982422 l -2.24219,-1.470703 -2.61133,-0.603515 z m 3.83789,31.673828 92.70508,21.394531 c 1.33193,0.996758 3.0715,2.376873 4.94922,4.173828 3.37693,3.231683 4.39648,7.461199 4.39648,4.591797 0,240.799216 -194.84574,435.259766 -435.259763,435.259766 2.747396,0 -1.406716,-1.01869 -4.615234,-4.38086 -1.792245,-1.87807 -3.158711,-3.61319 -4.144531,-4.93945 l -21.396485,-92.71875 8.658203,-17.07227 99.06055,-42.45312 17.43945,4.29687 52.36328,63.97657 10.57422,-4.95704 C 299.01054,361.7074 362.51145,297.29965 398.94141,219.6836 l 4.96484,-10.57813 -63.98047,-52.36719 -4.29687,-17.43945 L 378.07812,40.25 Z"
     id="path841" />
</svg>
