<?xml version="1.0" encoding="UTF-8" standalone="no"?>
<svg
   width="73.947136"
   height="74.004402"
   viewBox="0 0 19.56518 19.580331"
   version="1.1"
   id="svg8"
   inkscape:version="1.2.1 (9c6d41e410, 2022-07-14)"
   sodipodi:docname="quality.svg"
   xml:space="preserve"
   xmlns:inkscape="http://www.inkscape.org/namespaces/inkscape"
   xmlns:sodipodi="http://sodipodi.sourceforge.net/DTD/sodipodi-0.dtd"
   xmlns="http://www.w3.org/2000/svg"
   xmlns:svg="http://www.w3.org/2000/svg"
   xmlns:rdf="http://www.w3.org/1999/02/22-rdf-syntax-ns#"
   xmlns:cc="http://creativecommons.org/ns#"
   xmlns:dc="http://purl.org/dc/elements/1.1/"><defs
     id="defs2" /><sodipodi:namedview
     id="base"
     pagecolor="#ffffff"
     bordercolor="#666666"
     borderopacity="1.0"
     inkscape:pageopacity="0.0"
     inkscape:pageshadow="2"
     inkscape:zoom="3.959798"
     inkscape:cx="78.034284"
     inkscape:cy="27.274119"
     inkscape:document-units="mm"
     inkscape:current-layer="g134"
     inkscape:document-rotation="0"
     showgrid="false"
     inkscape:window-width="1920"
     inkscape:window-height="1017"
     inkscape:window-x="1912"
     inkscape:window-y="-8"
     inkscape:window-maximized="1"
     fit-margin-top="5"
     fit-margin-left="5"
     fit-margin-right="5"
     fit-margin-bottom="5"
     units="px"
     lock-margins="true"
     inkscape:showpageshadow="2"
     inkscape:pagecheckerboard="0"
     inkscape:deskcolor="#d1d1d1" /><metadata
     id="metadata5"><rdf:RDF><cc:Work
         rdf:about=""><dc:format>image/svg+xml</dc:format><dc:type
           rdf:resource="http://purl.org/dc/dcmitype/StillImage" /></cc:Work></rdf:RDF></metadata><g
     inkscape:groupmode="layer"
     id="g134"
     inkscape:label="Dessin 2"
     style="display:inline"
     transform="translate(-57.13939,-132.96414)"><path
       style="fill:#ffffff;stroke:#26355e;stroke-width:0.79375;stroke-linecap:round;stroke-linejoin:round;stroke-dasharray:none"
       d="m 66.707756,144.6137 c 0,0 1.317363,-1.34189 2.046197,-2.13058 0.728834,-0.78871 0.770881,-1.64516 1.521642,-1.85819 1.803511,-0.005 -0.887672,4.55824 -3.567839,3.98877 z"
       id="path11342"
       sodipodi:nodetypes="cscc" /><path
       style="display:inline;fill:none;stroke:#26355e;stroke-width:0.79375;stroke-linecap:round;stroke-linejoin:round;stroke-miterlimit:4;stroke-dasharray:none;stroke-opacity:1"
       d="m 62.067852,147.02369 c 0.768286,-0.89431 -0.120288,-1.67473 0.22024,-2.4037 0.820052,-1.75552 -1.355082,-4.12424 -0.05224,-4.16394 0.610195,-0.0186 1.861101,1.18783 2.022111,2.55174 0.195185,1.65338 1.48797,1.8225 3.090707,1.67346 2.927355,-0.27225 3.598086,-4.66121 4.618674,-4.06317 1.020588,0.59804 -1.422536,5.04474 -4.45367,7.70797 -0.650083,0.61465 -1.40251,1.18821 -2.061059,1.7192 z"
       id="path4875"
       sodipodi:nodetypes="csssszccc" /><path
       style="fill:none;stroke:#26355e;stroke-width:0.79375;stroke-linecap:round;stroke-linejoin:round;stroke-dasharray:none"
       d="m 61.792514,146.74174 3.974848,3.53733 c 0,0 -0.732436,0.84242 -1.400602,1.62407 -0.668413,0.78142 -4.675481,-2.76745 -4.675481,-2.76745 0.112279,-0.11432 1.882511,-2.19193 2.02329,-2.30454 z"
       id="path11487" /><path
       style="fill:none;stroke:#26355e;stroke-width:0.52916667;stroke-linecap:round;stroke-linejoin:round;stroke-dasharray:none"
       d="m 64.225712,149.99684 c 0.194178,0.16904 0.214566,0.46348 0.04554,0.65765 -0.169023,0.1942 -0.463464,0.2146 -0.657652,0.0455 -0.194176,-0.16905 -0.214559,-0.46348 -0.04553,-0.65765 0.169022,-0.19419 0.463459,-0.2146 0.657646,-0.0456 z"
       id="path9846" /><path
       id="rect11396"
       style="fill:none;stroke:#26355e;stroke-width:0.79375;stroke-linecap:round;stroke-linejoin:round;stroke-dasharray:none"
       d="m 58.685196,139.09706 c 0,0 0.641125,0.2803 0.825652,0.51527 0.138605,0.1765 0.161801,0.60886 0.161801,0.60886 4.116677,-0.005 10.912907,0.0114 14.665429,0.0106 0,0 0.0232,-0.43236 0.161803,-0.60885 0.184525,-0.23498 0.826038,-0.51528 0.826038,-0.51528 h -2.66469 c -3.009075,0.002 -8.575752,-0.0262 -11.31173,-0.0106 z"
       sodipodi:nodetypes="ccccscccc" /><path
       sodipodi:type="star"
       style="fill:none;stroke:#26355e;stroke-width:3.79037803;stroke-linecap:round;stroke-linejoin:round;stroke-dasharray:none"
       id="path11483"
       inkscape:flatsided="false"
       sodipodi:sides="5"
       sodipodi:cx="32.451153"
       sodipodi:cy="2.1465743"
       sodipodi:r1="12.300707"
       sodipodi:r2="6.1503534"
       sodipodi:arg1="0.94577361"
       sodipodi:arg2="1.5740921"
       inkscape:rounded="0"
       inkscape:randomized="0"
       d="m 39.648489,12.12183 -7.217606,-3.8249357 -7.242663,3.7772777 1.407367,-8.0463224 -5.83051,-5.7209387 8.087407,-1.1479646 3.63921,-7.3130123 3.590925,7.3368413 8.079665,1.2012487 -5.868093,5.6823817 z"
       transform="matrix(0.20941183,0,0,0.20941183,60.276515,135.65646)"
       inkscape:transform-center-x="-0.0026229441"
       inkscape:transform-center-y="-0.24348485" /></g></svg>
