<?xml version="1.0" encoding="UTF-8" standalone="no"?>
<svg
   xmlns:dc="http://purl.org/dc/elements/1.1/"
   xmlns:cc="http://creativecommons.org/ns#"
   xmlns:rdf="http://www.w3.org/1999/02/22-rdf-syntax-ns#"
   xmlns:svg="http://www.w3.org/2000/svg"
   xmlns="http://www.w3.org/2000/svg"
   xmlns:sodipodi="http://sodipodi.sourceforge.net/DTD/sodipodi-0.dtd"
   xmlns:inkscape="http://www.inkscape.org/namespaces/inkscape"
   version="1.0"
   width="512.000000pt"
   height="512.000000pt"
   viewBox="0 0 512.000000 512.000000"
   preserveAspectRatio="xMidYMid meet"
   id="svg10"
   sodipodi:docname="secure.svg"
   inkscape:version="1.0.1 (3bc2e813f5, 2020-09-07)">
  <defs
     id="defs14" />
  <sodipodi:namedview
     pagecolor="#ffffff"
     bordercolor="#666666"
     borderopacity="1"
     objecttolerance="10"
     gridtolerance="10"
     guidetolerance="10"
     inkscape:pageopacity="0"
     inkscape:pageshadow="2"
     inkscape:window-width="1920"
     inkscape:window-height="1057"
     id="namedview12"
     showgrid="false"
     inkscape:zoom="0.65185545"
     inkscape:cx="97.199646"
     inkscape:cy="362.29983"
     inkscape:window-x="-8"
     inkscape:window-y="53"
     inkscape:window-maximized="1"
     inkscape:current-layer="svg10"
     inkscape:document-rotation="0" />
  <metadata
     id="metadata2">
Created by potrace 1.16, written by Peter Selinger 2001-2019
<rdf:RDF>
  <cc:Work
     rdf:about="">
    <dc:format>image/svg+xml</dc:format>
    <dc:type
       rdf:resource="http://purl.org/dc/dcmitype/StillImage" />
    <dc:title></dc:title>
  </cc:Work>
</rdf:RDF>
</metadata>
  <g
     transform="matrix(0.11161715,0,0,-0.11161715,-29.739892,544.4137)"
     fill="#000000"
     stroke="none"
     id="g8"
     style="fill:#ff6700;fill-opacity:1">
    <path
       d="M 2485,4799 C 2261,4571 1975,4421 1560,4311 1250,4229 878,4178 493,4163 l -173,-6 v -182 c 0,-441 88,-994 235,-1479 253,-834 695,-1475 1281,-1859 191,-126 454,-250 646,-306 74,-21 78,-22 135,-5 282,81 671,293 908,494 450,382 785,912 1010,1596 160,486 265,1110 265,1569 v 172 l -178,7 c -188,7 -450,29 -567,47 -521,82 -869,194 -1150,367 -71,44 -198,148 -270,221 -38,39 -72,71 -75,71 -3,0 -37,-32 -75,-71 z m 101,-400 c 13,-21 184,-128 301,-187 392,-199 871,-316 1506,-367 42,-4 77,-9 77,-11 0,-3 -7,-71 -15,-152 C 4344,2606 3984,1729 3431,1191 3325,1088 3166,963 3035,878 2906,796 2609,660 2558,660 c -30,0 -212,74 -323,131 -717,369 -1225,1140 -1465,2222 -48,218 -86,473 -115,764 l -6,61 78,6 c 623,50 1119,171 1503,367 113,57 292,168 305,189 8,13 42,13 51,-1 z"
       id="path4"
       style="fill:#ff6700;fill-opacity:1" />
    <path
       d="m 2982,2897 -582,-582 -263,263 -262,262 -118,-118 -117,-117 380,-380 380,-380 700,700 700,700 -118,118 -117,117 z"
       id="path6"
       style="fill:#ff6700;fill-opacity:1" />
  </g>
</svg>
