<?xml version="1.0" encoding="UTF-8" standalone="no"?>
<svg
   width="73.947136"
   height="74.004402"
   viewBox="0 0 19.56518 19.580331"
   version="1.1"
   id="svg8"
   inkscape:version="1.2.1 (9c6d41e410, 2022-07-14)"
   sodipodi:docname="shake.svg"
   xml:space="preserve"
   xmlns:inkscape="http://www.inkscape.org/namespaces/inkscape"
   xmlns:sodipodi="http://sodipodi.sourceforge.net/DTD/sodipodi-0.dtd"
   xmlns="http://www.w3.org/2000/svg"
   xmlns:svg="http://www.w3.org/2000/svg"
   xmlns:rdf="http://www.w3.org/1999/02/22-rdf-syntax-ns#"
   xmlns:cc="http://creativecommons.org/ns#"
   xmlns:dc="http://purl.org/dc/elements/1.1/"><defs
     id="defs2" /><sodipodi:namedview
     id="base"
     pagecolor="#ffffff"
     bordercolor="#666666"
     borderopacity="1.0"
     inkscape:pageopacity="0.0"
     inkscape:pageshadow="2"
     inkscape:zoom="4.5978792"
     inkscape:cx="29.361363"
     inkscape:cy="41.105908"
     inkscape:document-units="mm"
     inkscape:current-layer="g134"
     inkscape:document-rotation="0"
     showgrid="false"
     inkscape:window-width="1920"
     inkscape:window-height="1017"
     inkscape:window-x="1912"
     inkscape:window-y="-8"
     inkscape:window-maximized="1"
     fit-margin-top="5"
     fit-margin-left="5"
     fit-margin-right="5"
     fit-margin-bottom="5"
     units="px"
     lock-margins="true"
     inkscape:showpageshadow="2"
     inkscape:pagecheckerboard="0"
     inkscape:deskcolor="#d1d1d1" /><metadata
     id="metadata5"><rdf:RDF><cc:Work
         rdf:about=""><dc:format>image/svg+xml</dc:format><dc:type
           rdf:resource="http://purl.org/dc/dcmitype/StillImage" /></cc:Work></rdf:RDF></metadata><g
     inkscape:groupmode="layer"
     id="g134"
     inkscape:label="Dessin 2"
     style="display:inline"
     transform="translate(-57.13939,-132.96414)"><path
       id="path4875"
       style="display:inline;fill:none;stroke:#26355e;stroke-width:0.79375;stroke-linecap:round;stroke-linejoin:round;stroke-miterlimit:4;stroke-dasharray:none;stroke-opacity:1"
       d="m 62.336563,138.53929 2.717399,0.27537 c 0,0 -2.867167,2.18098 -1.362619,3.34366 0.942511,0.72836 2.313982,-0.37557 3.325108,-1.15266 0.207666,-0.1596 5.282177,4.332 5.27253,4.63403 -0.03438,1.07643 -1.187489,2.06501 -2.470713,2.46973 -1.283224,0.40471 -2.729974,0.52622 -3.418461,0.46986 -2.654177,-0.26818 -5.480655,-4.91893 -5.480655,-4.91893 z m 0.253192,-0.51828 -1.971113,6.61492 -2.706104,-0.0334 v -7.45014 c 1.569531,0.10791 3.131786,0.55362 4.677217,0.86862 z"
       sodipodi:nodetypes="ccsssscccccccc" /><path
       id="path4899"
       style="display:inline;fill:none;stroke:#26355e;stroke-width:0.79375;stroke-linecap:round;stroke-linejoin:round;stroke-miterlimit:4;stroke-dasharray:none;stroke-opacity:1"
       d="m 71.644227,138.79915 -5.386161,-0.87407 c 0,0 -2.894048,2.02075 -3.000186,3.1183 -0.106138,1.09755 0.757734,1.44292 1.535527,1.34654 0.915544,-0.11344 2.220611,-1.46466 2.220611,-1.46466 1.834909,1.27081 3.357108,2.60417 4.748326,3.96372 l 1.322916,-0.96353 z m -0.330617,-0.74704 1.971113,6.61492 2.706104,-0.0334 v -7.45014 c -1.569531,0.10791 -3.131786,0.55362 -4.677217,0.86862 z"
       sodipodi:nodetypes="ccssccccccccc" /><path
       style="display:inline;fill:#ffffff;stroke:#26355e;stroke-width:0.529167;stroke-linecap:round;stroke-linejoin:round;stroke-miterlimit:4;stroke-dasharray:none;stroke-opacity:1"
       d="m 67.963806,148.1985 -2.370338,-1.62152 z"
       id="path4901"
       sodipodi:nodetypes="ccc" /><path
       style="display:inline;fill:#ffffff;stroke:#26355e;stroke-width:0.529167;stroke-linecap:round;stroke-linejoin:round;stroke-miterlimit:4;stroke-dasharray:none;stroke-opacity:1"
       d="m 71.426846,147.2158 -2.493492,-1.91003 z"
       id="path4903"
       sodipodi:nodetypes="scs" /><path
       style="display:inline;fill:#ffffff;stroke:#26355e;stroke-width:0.529167;stroke-linecap:round;stroke-linejoin:round;stroke-miterlimit:4;stroke-dasharray:none;stroke-opacity:1"
       d="m 69.751171,147.78089 -2.472243,-1.73725 z"
       id="path4903-1"
       sodipodi:nodetypes="ccc" /><path
       style="display:inline;fill:none;stroke:#26355e;stroke-width:0.529167;stroke-linecap:round;stroke-linejoin:round;stroke-dasharray:none"
       d="m 59.919861,142.97062 c 0.194178,0.16904 0.214566,0.46348 0.04554,0.65765 -0.169023,0.1942 -0.463464,0.2146 -0.657652,0.0455 -0.194176,-0.16905 -0.214559,-0.46348 -0.04553,-0.65765 0.169022,-0.19419 0.463459,-0.2146 0.657646,-0.0456 z"
       id="path9846" /></g></svg>
