<?xml version="1.0" encoding="UTF-8" standalone="no"?>
<svg
   xmlns:dc="http://purl.org/dc/elements/1.1/"
   xmlns:cc="http://creativecommons.org/ns#"
   xmlns:rdf="http://www.w3.org/1999/02/22-rdf-syntax-ns#"
   xmlns:svg="http://www.w3.org/2000/svg"
   xmlns="http://www.w3.org/2000/svg"
   xmlns:sodipodi="http://sodipodi.sourceforge.net/DTD/sodipodi-0.dtd"
   xmlns:inkscape="http://www.inkscape.org/namespaces/inkscape"
   version="1.0"
   width="512.000000pt"
   height="512.000000pt"
   viewBox="0 0 512.000000 512.000000"
   preserveAspectRatio="xMidYMid meet"
   id="svg8"
   sodipodi:docname="windows.svg"
   inkscape:version="1.0.1 (3bc2e813f5, 2020-09-07)">
  <defs
     id="defs12" />
  <sodipodi:namedview
     pagecolor="#ffffff"
     bordercolor="#666666"
     borderopacity="1"
     objecttolerance="10"
     gridtolerance="10"
     guidetolerance="10"
     inkscape:pageopacity="0"
     inkscape:pageshadow="2"
     inkscape:window-width="1920"
     inkscape:window-height="1057"
     id="namedview10"
     showgrid="false"
     inkscape:zoom="1.3037109"
     inkscape:cx="341.33333"
     inkscape:cy="341.33333"
     inkscape:window-x="-8"
     inkscape:window-y="53"
     inkscape:window-maximized="1"
     inkscape:current-layer="svg8" />
  <metadata
     id="metadata2">
Created by potrace 1.16, written by Peter Selinger 2001-2019
<rdf:RDF>
  <cc:Work
     rdf:about="">
    <dc:format>image/svg+xml</dc:format>
    <dc:type
       rdf:resource="http://purl.org/dc/dcmitype/StillImage" />
    <dc:title></dc:title>
  </cc:Work>
</rdf:RDF>
</metadata>
  <g
     transform="translate(0.000000,512.000000) scale(0.100000,-0.100000)"
     fill="#000000"
     stroke="none"
     id="g6"
     style="fill:#ff6700;fill-opacity:1">
    <path
       d="M969 4690 c-263 -32 -450 -203 -525 -485 -18 -67 -19 -137 -19 -1660 0 -1487 1 -1594 18 -1655 64 -240 240 -398 500 -451 95 -19 135 -19 1665 -17 1460 3 1571 4 1627 21 152 44 265 126 346 251 48 73 76 146 100 261 18 86 19 160 19 1590 0 955 -4 1531 -10 1585 -16 134 -47 219 -111 305 -87 118 -194 187 -369 238 l-75 22 -1550 1 c-852 1 -1580 -2 -1616 -6z m3081 -1385 l0 -745 -850 0 -850 0 0 575 c0 316 1 575 3 575 4 1 1692 338 1695 339 1 1 2 -334 2 -744z m-1920 -190 l0 -555 -530 0 -530 0 0 450 c0 248 1 450 3 450 6 1 1052 208 1055 209 1 0 2 -249 2 -554z m0 -1350 c0 -316 -3 -575 -7 -575 -5 0 -243 39 -530 87 l-523 88 0 487 0 488 530 0 530 0 0 -575z m1920 -165 c0 -407 -3 -740 -6 -740 -4 0 -111 18 -238 40 -267 45 -1056 179 -1291 219 l-160 27 -3 597 -2 597 850 0 850 0 0 -740z"
       id="path4"
       style="fill:#ff6700;fill-opacity:1" />
  </g>
</svg>
